<svg xmlns="http://www.w3.org/2000/svg" xmlns:xlink="http://www.w3.org/1999/xlink" width="518" zoomAndPan="magnify" viewBox="0 0 388.5 136.499996" height="182" preserveAspectRatio="xMidYMid meet" version="1.0"><defs><g/><clipPath id="f11f3133d1"><path d="M 89 5 L 177.5625 5 L 177.5625 94 L 89 94 Z M 89 5 " clip-rule="nonzero"/></clipPath><clipPath id="26f59ca886"><path d="M 177.078125 93.882812 C 177.078125 93.882812 114.066406 74.703125 100.328125 60.964844 C 86.59375 47.226562 85.265625 26.28125 97.371094 14.175781 C 109.472656 2.074219 130.421875 3.398438 144.15625 17.136719 C 157.894531 30.875 177.078125 93.882812 177.078125 93.882812 Z M 177.078125 93.882812 " clip-rule="nonzero"/></clipPath><clipPath id="dda3194bbb"><path d="M 0.460938 43 L 89 43 L 89 132 L 0.460938 132 Z M 0.460938 43 " clip-rule="nonzero"/></clipPath><clipPath id="8f63255037"><path d="M 0.632812 43.503906 C 0.632812 43.503906 19.8125 106.515625 33.550781 120.25 C 47.289062 133.988281 68.234375 135.3125 80.339844 123.210938 C 92.441406 111.109375 91.117188 90.160156 77.378906 76.421875 C 63.640625 62.6875 0.632812 43.503906 0.632812 43.503906 Z M 0.632812 43.503906 " clip-rule="nonzero"/></clipPath><clipPath id="415a02d644"><path d="M 23 3 L 153 3 L 153 132 L 23 132 Z M 23 3 " clip-rule="nonzero"/></clipPath><clipPath id="2cb0639419"><path d="M 143.609375 92.199219 C 138.515625 87.105469 125 80.664062 112.351562 75.355469 C 97.773438 69.238281 86.6875 58.148438 80.566406 43.570312 C 75.257812 30.925781 68.820312 17.40625 63.722656 12.3125 C 53.144531 1.734375 37.734375 -0.0117188 29.304688 8.417969 C 20.875 16.847656 22.617188 32.257812 33.199219 42.835938 C 38.292969 47.933594 51.8125 54.371094 64.457031 59.679688 C 79.035156 65.800781 90.125 76.886719 96.242188 91.464844 C 101.550781 104.113281 107.992188 117.628906 113.085938 122.722656 C 123.664062 133.304688 139.074219 135.046875 147.503906 126.617188 C 155.933594 118.1875 154.191406 102.777344 143.609375 92.199219 Z M 143.609375 92.199219 " clip-rule="nonzero"/></clipPath></defs><g clip-path="url(#f11f3133d1)"><g clip-path="url(#26f59ca886)"><path fill="#3cacae" d="M 131.171875 -43.832031 L 39.363281 47.980469 L 131.171875 139.789062 L 222.980469 47.980469 Z M 131.171875 -43.832031 " fill-opacity="1" fill-rule="nonzero"/></g></g><g clip-path="url(#dda3194bbb)"><g clip-path="url(#8f63255037)"><path fill="#3cacae" d="M 46.535156 -2.402344 L -45.242188 89.378906 L 46.535156 181.160156 L 138.316406 89.378906 Z M 46.535156 -2.402344 " fill-opacity="1" fill-rule="nonzero"/></g></g><g clip-path="url(#415a02d644)"><g clip-path="url(#2cb0639419)"><path fill="#3cacae" d="M 88.40625 -67.527344 L -46.648438 67.523438 L 88.40625 202.574219 L 223.457031 67.523438 Z M 88.40625 -67.527344 " fill-opacity="1" fill-rule="nonzero"/></g></g><g fill="#3cacae" fill-opacity="1"><g transform="translate(191.478265, 85.213484)"><g><path d="M 10.046875 -25.015625 L 0.171875 -25.015625 L 0.171875 -30.828125 L 27.03125 -30.828125 L 27.03125 -25.015625 L 17.171875 -25.015625 L 17.171875 0 L 10.046875 0 Z M 10.046875 -25.015625 "/></g></g></g><g fill="#3cacae" fill-opacity="1"><g transform="translate(222.344302, 85.213484)"><g><path d="M 26.375 -11.75 C 26.375 -11.664062 26.332031 -11.050781 26.25 -9.90625 L 8.328125 -9.90625 C 8.648438 -8.4375 9.410156 -7.273438 10.609375 -6.421875 C 11.816406 -5.578125 13.316406 -5.15625 15.109375 -5.15625 C 16.335938 -5.15625 17.425781 -5.335938 18.375 -5.703125 C 19.332031 -6.066406 20.222656 -6.644531 21.046875 -7.4375 L 24.703125 -3.484375 C 22.472656 -0.921875 19.210938 0.359375 14.921875 0.359375 C 12.253906 0.359375 9.890625 -0.160156 7.828125 -1.203125 C 5.773438 -2.253906 4.191406 -3.703125 3.078125 -5.546875 C 1.960938 -7.398438 1.40625 -9.5 1.40625 -11.84375 C 1.40625 -14.164062 1.957031 -16.257812 3.0625 -18.125 C 4.164062 -19.988281 5.675781 -21.441406 7.59375 -22.484375 C 9.519531 -23.523438 11.671875 -24.046875 14.046875 -24.046875 C 16.367188 -24.046875 18.46875 -23.546875 20.34375 -22.546875 C 22.21875 -21.546875 23.691406 -20.113281 24.765625 -18.25 C 25.835938 -16.382812 26.375 -14.21875 26.375 -11.75 Z M 14.09375 -18.84375 C 12.53125 -18.84375 11.222656 -18.398438 10.171875 -17.515625 C 9.117188 -16.640625 8.472656 -15.4375 8.234375 -13.90625 L 19.90625 -13.90625 C 19.664062 -15.40625 19.015625 -16.601562 17.953125 -17.5 C 16.898438 -18.394531 15.613281 -18.84375 14.09375 -18.84375 Z M 14.09375 -18.84375 "/></g></g></g><g fill="#3cacae" fill-opacity="1"><g transform="translate(253.782737, 85.213484)"><g><path d="M 11.140625 0.359375 C 9.171875 0.359375 7.242188 0.117188 5.359375 -0.359375 C 3.484375 -0.847656 1.988281 -1.460938 0.875 -2.203125 L 3.171875 -7.140625 C 4.222656 -6.460938 5.5 -5.910156 7 -5.484375 C 8.5 -5.054688 9.96875 -4.84375 11.40625 -4.84375 C 14.3125 -4.84375 15.765625 -5.5625 15.765625 -7 C 15.765625 -7.675781 15.367188 -8.160156 14.578125 -8.453125 C 13.785156 -8.742188 12.566406 -8.992188 10.921875 -9.203125 C 8.984375 -9.492188 7.382812 -9.828125 6.125 -10.203125 C 4.863281 -10.585938 3.769531 -11.265625 2.84375 -12.234375 C 1.914062 -13.203125 1.453125 -14.582031 1.453125 -16.375 C 1.453125 -17.875 1.882812 -19.203125 2.75 -20.359375 C 3.613281 -21.523438 4.875 -22.429688 6.53125 -23.078125 C 8.195312 -23.722656 10.160156 -24.046875 12.421875 -24.046875 C 14.085938 -24.046875 15.75 -23.859375 17.40625 -23.484375 C 19.070312 -23.117188 20.445312 -22.613281 21.53125 -21.96875 L 19.234375 -17.078125 C 17.148438 -18.253906 14.878906 -18.84375 12.421875 -18.84375 C 10.953125 -18.84375 9.847656 -18.632812 9.109375 -18.21875 C 8.378906 -17.8125 8.015625 -17.285156 8.015625 -16.640625 C 8.015625 -15.910156 8.410156 -15.394531 9.203125 -15.09375 C 9.992188 -14.800781 11.253906 -14.523438 12.984375 -14.265625 C 14.921875 -13.941406 16.503906 -13.597656 17.734375 -13.234375 C 18.972656 -12.867188 20.046875 -12.203125 20.953125 -11.234375 C 21.867188 -10.265625 22.328125 -8.910156 22.328125 -7.171875 C 22.328125 -5.703125 21.882812 -4.394531 21 -3.25 C 20.125 -2.113281 18.84375 -1.226562 17.15625 -0.59375 C 15.46875 0.0390625 13.460938 0.359375 11.140625 0.359375 Z M 11.140625 0.359375 "/></g></g></g><g fill="#3cacae" fill-opacity="1"><g transform="translate(280.818166, 85.213484)"><g><path d="M 18.453125 -1.140625 C 17.773438 -0.640625 16.941406 -0.265625 15.953125 -0.015625 C 14.972656 0.234375 13.941406 0.359375 12.859375 0.359375 C 10.035156 0.359375 7.851562 -0.359375 6.3125 -1.796875 C 4.769531 -3.242188 4 -5.359375 4 -8.140625 L 4 -17.875 L 0.359375 -17.875 L 0.359375 -23.15625 L 4 -23.15625 L 4 -28.921875 L 10.875 -28.921875 L 10.875 -23.15625 L 16.78125 -23.15625 L 16.78125 -17.875 L 10.875 -17.875 L 10.875 -8.234375 C 10.875 -7.234375 11.128906 -6.460938 11.640625 -5.921875 C 12.160156 -5.378906 12.890625 -5.109375 13.828125 -5.109375 C 14.910156 -5.109375 15.832031 -5.398438 16.59375 -5.984375 Z M 18.453125 -1.140625 "/></g></g></g><g fill="#3cacae" fill-opacity="1"><g transform="translate(303.626702, 85.213484)"><g><path d="M 3.171875 -23.6875 L 10.046875 -23.6875 L 10.046875 0 L 3.171875 0 Z M 6.609375 -26.984375 C 5.335938 -26.984375 4.304688 -27.347656 3.515625 -28.078125 C 2.722656 -28.816406 2.328125 -29.734375 2.328125 -30.828125 C 2.328125 -31.910156 2.722656 -32.816406 3.515625 -33.546875 C 4.304688 -34.285156 5.335938 -34.65625 6.609375 -34.65625 C 7.867188 -34.65625 8.894531 -34.300781 9.6875 -33.59375 C 10.476562 -32.882812 10.875 -32.003906 10.875 -30.953125 C 10.875 -29.804688 10.476562 -28.859375 9.6875 -28.109375 C 8.894531 -27.359375 7.867188 -26.984375 6.609375 -26.984375 Z M 6.609375 -26.984375 "/></g></g></g><g fill="#3cacae" fill-opacity="1"><g transform="translate(320.535209, 85.213484)"><g><path d="M 10.703125 -23.15625 L 16.78125 -23.15625 L 16.78125 -17.875 L 10.875 -17.875 L 10.875 0 L 4 0 L 4 -17.875 L 0.359375 -17.875 L 0.359375 -23.15625 L 4 -23.15625 L 4 -24.21875 C 4 -26.914062 4.800781 -29.054688 6.40625 -30.640625 C 8.007812 -32.222656 10.265625 -33.015625 13.171875 -33.015625 C 14.191406 -33.015625 15.164062 -32.90625 16.09375 -32.6875 C 17.019531 -32.46875 17.789062 -32.15625 18.40625 -31.75 L 16.59375 -26.765625 C 15.800781 -27.328125 14.878906 -27.609375 13.828125 -27.609375 C 11.742188 -27.609375 10.703125 -26.460938 10.703125 -24.171875 Z M 10.703125 -23.15625 "/></g></g></g><g fill="#3cacae" fill-opacity="1"><g transform="translate(341.230302, 85.213484)"><g><path d="M 26.6875 -23.6875 L 15.984375 1.453125 C 14.898438 4.179688 13.554688 6.101562 11.953125 7.21875 C 10.359375 8.332031 8.429688 8.890625 6.171875 8.890625 C 4.929688 8.890625 3.707031 8.695312 2.5 8.3125 C 1.300781 7.9375 0.320312 7.410156 -0.4375 6.734375 L 2.0625 1.84375 C 2.59375 2.3125 3.203125 2.675781 3.890625 2.9375 C 4.585938 3.207031 5.269531 3.34375 5.9375 3.34375 C 6.882812 3.34375 7.648438 3.113281 8.234375 2.65625 C 8.816406 2.207031 9.34375 1.453125 9.8125 0.390625 L 9.90625 0.171875 L -0.359375 -23.6875 L 6.734375 -23.6875 L 13.390625 -7.625 L 20.078125 -23.6875 Z M 26.6875 -23.6875 "/></g></g></g></svg>