<svg xmlns="http://www.w3.org/2000/svg" xmlns:xlink="http://www.w3.org/1999/xlink" width="500" zoomAndPan="magnify" viewBox="0 0 375 374.999991" height="500" preserveAspectRatio="xMidYMid meet" version="1.0"><defs><clipPath id="010a96eb7a"><path d="M 188 56 L 375 56 L 375 244 L 188 244 Z M 188 56 " clip-rule="nonzero"/></clipPath><clipPath id="91119b6a06"><path d="M 374.632812 243.117188 C 374.632812 243.117188 240.980469 202.425781 211.84375 173.289062 C 182.703125 144.152344 179.894531 99.71875 205.566406 74.046875 C 231.238281 48.378906 275.667969 51.1875 304.804688 80.324219 C 333.945312 109.460938 374.632812 243.117188 374.632812 243.117188 Z M 374.632812 243.117188 " clip-rule="nonzero"/></clipPath><clipPath id="de82bbeb22"><path d="M 0 136 L 187 136 L 187 323 L 0 323 Z M 0 136 " clip-rule="nonzero"/></clipPath><clipPath id="b831ff2979"><path d="M 0.371094 136.253906 C 0.371094 136.253906 41.0625 269.90625 70.199219 299.042969 C 99.335938 328.183594 143.769531 330.992188 169.441406 305.320312 C 195.109375 279.648438 192.300781 235.21875 163.164062 206.082031 C 134.027344 176.941406 0.371094 136.253906 0.371094 136.253906 Z M 0.371094 136.253906 " clip-rule="nonzero"/></clipPath><clipPath id="0f7aaac763"><path d="M 49 50 L 324 50 L 324 324 L 49 324 Z M 49 50 " clip-rule="nonzero"/></clipPath><clipPath id="4300118721"><path d="M 303.648438 239.539062 C 292.84375 228.734375 264.167969 215.074219 237.339844 203.8125 C 206.425781 190.835938 182.90625 167.316406 169.925781 136.398438 C 158.667969 109.570312 145.003906 80.898438 134.199219 70.09375 C 111.757812 47.652344 79.074219 43.957031 61.195312 61.835938 C 43.3125 79.714844 47.011719 112.402344 69.449219 134.839844 C 80.257812 145.648438 108.929688 159.308594 135.757812 170.570312 C 166.671875 183.546875 190.195312 207.066406 203.171875 237.984375 C 214.433594 264.8125 228.09375 293.484375 238.898438 304.289062 C 261.339844 326.730469 294.023438 330.425781 311.90625 312.546875 C 329.785156 294.667969 326.089844 261.980469 303.648438 239.539062 Z M 303.648438 239.539062 " clip-rule="nonzero"/></clipPath></defs><g clip-path="url(#010a96eb7a)"><g clip-path="url(#91119b6a06)"><path fill="#26a69a" d="M 277.261719 -48.992188 L 82.523438 145.746094 L 277.261719 340.484375 L 472.003906 145.746094 Z M 277.261719 -48.992188 " fill-opacity="1" fill-rule="nonzero"/></g></g><g clip-path="url(#de82bbeb22)"><g clip-path="url(#b831ff2979)"><path fill="#26a69a" d="M 97.742188 38.886719 L -96.996094 233.625 L 97.742188 428.363281 L 292.480469 233.625 Z M 97.742188 38.886719 " fill-opacity="1" fill-rule="nonzero"/></g></g><g clip-path="url(#0f7aaac763)"><g clip-path="url(#4300118721)"><path fill="#26a69a" d="M 186.550781 -99.257812 L -99.910156 187.203125 L 186.550781 473.660156 L 473.007812 187.203125 Z M 186.550781 -99.257812 " fill-opacity="1" fill-rule="nonzero"/></g></g></svg>