<svg xmlns="http://www.w3.org/2000/svg" xmlns:xlink="http://www.w3.org/1999/xlink" width="500" zoomAndPan="magnify" viewBox="0 0 375 374.999991" height="500" preserveAspectRatio="xMidYMid meet" version="1.0"><defs><g/><clipPath id="7f6a8e485d"><path d="M 187 76 L 282.398438 76 L 282.398438 171 L 187 171 Z M 187 76 " clip-rule="nonzero"/></clipPath><clipPath id="af4471afd1"><path d="M 282.167969 170.667969 C 282.167969 170.667969 214.554688 150.085938 199.8125 135.34375 C 185.074219 120.605469 183.652344 98.128906 196.640625 85.140625 C 209.625 72.15625 232.101562 73.574219 246.84375 88.316406 C 261.582031 103.054688 282.167969 170.667969 282.167969 170.667969 Z M 282.167969 170.667969 " clip-rule="nonzero"/></clipPath><clipPath id="987513ba72"><path d="M 92.648438 116 L 188 116 L 188 212 L 92.648438 212 Z M 92.648438 116 " clip-rule="nonzero"/></clipPath><clipPath id="1b9f0bd718"><path d="M 92.835938 116.609375 C 92.835938 116.609375 113.417969 184.222656 128.160156 198.960938 C 142.898438 213.703125 165.375 215.125 178.363281 202.136719 C 191.351562 189.152344 189.929688 166.671875 175.1875 151.933594 C 160.449219 137.191406 92.835938 116.609375 92.835938 116.609375 Z M 92.835938 116.609375 " clip-rule="nonzero"/></clipPath><clipPath id="d785300c77"><path d="M 117 73 L 257 73 L 257 212 L 117 212 Z M 117 73 " clip-rule="nonzero"/></clipPath><clipPath id="c3884ff0c6"><path d="M 246.257812 168.859375 C 240.789062 163.394531 226.285156 156.484375 212.714844 150.785156 C 197.074219 144.222656 185.175781 132.324219 178.609375 116.683594 C 172.914062 103.109375 166.003906 88.605469 160.535156 83.140625 C 149.183594 71.789062 132.648438 69.917969 123.605469 78.964844 C 114.558594 88.007812 116.429688 104.542969 127.78125 115.894531 C 133.246094 121.359375 147.753906 128.273438 161.324219 133.96875 C 176.964844 140.535156 188.863281 152.433594 195.429688 168.074219 C 201.125 181.644531 208.035156 196.148438 213.5 201.617188 C 224.851562 212.96875 241.386719 214.835938 250.433594 205.792969 C 259.480469 196.746094 257.609375 180.210938 246.257812 168.859375 Z M 246.257812 168.859375 " clip-rule="nonzero"/></clipPath></defs><g clip-path="url(#7f6a8e485d)"><g clip-path="url(#af4471afd1)"><path fill="#26a69a" d="M 232.910156 22.898438 L 134.394531 121.410156 L 232.910156 219.925781 L 331.421875 121.410156 Z M 232.910156 22.898438 " fill-opacity="1" fill-rule="nonzero"/></g></g><g clip-path="url(#987513ba72)"><g clip-path="url(#1b9f0bd718)"><path fill="#26a69a" d="M 142.09375 67.351562 L 43.578125 165.867188 L 142.09375 264.378906 L 240.605469 165.867188 Z M 142.09375 67.351562 " fill-opacity="1" fill-rule="nonzero"/></g></g><g clip-path="url(#d785300c77)"><g clip-path="url(#c3884ff0c6)"><path fill="#26a69a" d="M 187.019531 -2.53125 L 42.105469 142.382812 L 187.019531 287.296875 L 331.933594 142.382812 Z M 187.019531 -2.53125 " fill-opacity="1" fill-rule="nonzero"/></g></g><g fill="#26a69a" fill-opacity="1"><g transform="translate(94.43213, 291.41667)"><g><path d="M 30.65625 -30.328125 L 19.5 -30.328125 L 19.5 0 L 12 0 L 12 -30.328125 L 1 -30.328125 L 1 -36.40625 L 30.65625 -36.40625 Z M 30.65625 -30.328125 "/></g></g></g><g fill="#26a69a" fill-opacity="1"><g transform="translate(130.359972, 291.41667)"><g><path d="M 15.21875 0.5 C 11.257812 0.5 8.03125 -0.710938 5.53125 -3.140625 C 3.039062 -5.578125 1.796875 -8.820312 1.796875 -12.875 L 1.796875 -13.578125 C 1.796875 -16.296875 2.320312 -18.722656 3.375 -20.859375 C 4.425781 -23.003906 5.910156 -24.65625 7.828125 -25.8125 C 9.753906 -26.96875 11.953125 -27.546875 14.421875 -27.546875 C 18.117188 -27.546875 21.03125 -26.378906 23.15625 -24.046875 C 25.289062 -21.710938 26.359375 -18.40625 26.359375 -14.125 L 26.359375 -11.171875 L 9.125 -11.171875 C 9.351562 -9.410156 10.054688 -7.992188 11.234375 -6.921875 C 12.410156 -5.859375 13.898438 -5.328125 15.703125 -5.328125 C 18.484375 -5.328125 20.65625 -6.332031 22.21875 -8.34375 L 25.78125 -4.375 C 24.695312 -2.84375 23.226562 -1.644531 21.375 -0.78125 C 19.519531 0.0703125 17.46875 0.5 15.21875 0.5 Z M 14.40625 -21.703125 C 12.96875 -21.703125 11.800781 -21.21875 10.90625 -20.25 C 10.019531 -19.28125 9.453125 -17.894531 9.203125 -16.09375 L 19.25 -16.09375 L 19.25 -16.671875 C 19.21875 -18.273438 18.785156 -19.515625 17.953125 -20.390625 C 17.117188 -21.265625 15.9375 -21.703125 14.40625 -21.703125 Z M 14.40625 -21.703125 "/></g></g></g><g fill="#26a69a" fill-opacity="1"><g transform="translate(162.287453, 291.41667)"><g><path d="M 17.421875 -7.46875 C 17.421875 -8.351562 16.984375 -9.050781 16.109375 -9.5625 C 15.234375 -10.070312 13.832031 -10.523438 11.90625 -10.921875 C 5.46875 -12.273438 2.25 -15.007812 2.25 -19.125 C 2.25 -21.519531 3.242188 -23.519531 5.234375 -25.125 C 7.222656 -26.738281 9.828125 -27.546875 13.046875 -27.546875 C 16.484375 -27.546875 19.226562 -26.738281 21.28125 -25.125 C 23.34375 -23.507812 24.375 -21.410156 24.375 -18.828125 L 17.15625 -18.828125 C 17.15625 -19.859375 16.820312 -20.710938 16.15625 -21.390625 C 15.488281 -22.066406 14.445312 -22.40625 13.03125 -22.40625 C 11.8125 -22.40625 10.867188 -22.128906 10.203125 -21.578125 C 9.535156 -21.023438 9.203125 -20.320312 9.203125 -19.46875 C 9.203125 -18.675781 9.578125 -18.03125 10.328125 -17.53125 C 11.085938 -17.039062 12.367188 -16.613281 14.171875 -16.25 C 15.972656 -15.894531 17.488281 -15.492188 18.71875 -15.046875 C 22.539062 -13.648438 24.453125 -11.226562 24.453125 -7.78125 C 24.453125 -5.3125 23.390625 -3.3125 21.265625 -1.78125 C 19.148438 -0.257812 16.421875 0.5 13.078125 0.5 C 10.804688 0.5 8.789062 0.0976562 7.03125 -0.703125 C 5.28125 -1.515625 3.90625 -2.625 2.90625 -4.03125 C 1.90625 -5.445312 1.40625 -6.96875 1.40625 -8.59375 L 8.25 -8.59375 C 8.3125 -7.3125 8.785156 -6.328125 9.671875 -5.640625 C 10.554688 -4.960938 11.738281 -4.625 13.21875 -4.625 C 14.601562 -4.625 15.648438 -4.882812 16.359375 -5.40625 C 17.066406 -5.9375 17.421875 -6.625 17.421875 -7.46875 Z M 17.421875 -7.46875 "/></g></g></g><g fill="#26a69a" fill-opacity="1"><g transform="translate(192.864816, 291.41667)"><g><path d="M 11.421875 -33.703125 L 11.421875 -27.046875 L 16.046875 -27.046875 L 16.046875 -21.75 L 11.421875 -21.75 L 11.421875 -8.25 C 11.421875 -7.25 11.613281 -6.53125 12 -6.09375 C 12.382812 -5.664062 13.117188 -5.453125 14.203125 -5.453125 C 15.003906 -5.453125 15.710938 -5.507812 16.328125 -5.625 L 16.328125 -0.15625 C 14.910156 0.28125 13.453125 0.5 11.953125 0.5 C 6.878906 0.5 4.296875 -2.054688 4.203125 -7.171875 L 4.203125 -21.75 L 0.25 -21.75 L 0.25 -27.046875 L 4.203125 -27.046875 L 4.203125 -33.703125 Z M 11.421875 -33.703125 "/></g></g></g><g fill="#26a69a" fill-opacity="1"><g transform="translate(214.416357, 291.41667)"><g><path d="M 10.40625 0 L 3.15625 0 L 3.15625 -27.046875 L 10.40625 -27.046875 Z M 2.71875 -34.046875 C 2.71875 -35.128906 3.082031 -36.019531 3.8125 -36.71875 C 4.539062 -37.425781 5.53125 -37.78125 6.78125 -37.78125 C 8.007812 -37.78125 8.988281 -37.425781 9.71875 -36.71875 C 10.457031 -36.019531 10.828125 -35.128906 10.828125 -34.046875 C 10.828125 -32.953125 10.453125 -32.050781 9.703125 -31.34375 C 8.960938 -30.644531 7.984375 -30.296875 6.765625 -30.296875 C 5.554688 -30.296875 4.578125 -30.644531 3.828125 -31.34375 C 3.085938 -32.050781 2.71875 -32.953125 2.71875 -34.046875 Z M 2.71875 -34.046875 "/></g></g></g><g fill="#26a69a" fill-opacity="1"><g transform="translate(232.242562, 291.41667)"><g><path d="M 4.75 0 L 4.75 -21.75 L 0.71875 -21.75 L 0.71875 -27.046875 L 4.75 -27.046875 L 4.75 -29.359375 C 4.75 -32.390625 5.617188 -34.738281 7.359375 -36.40625 C 9.097656 -38.082031 11.535156 -38.921875 14.671875 -38.921875 C 15.671875 -38.921875 16.894531 -38.753906 18.34375 -38.421875 L 18.28125 -32.828125 C 17.675781 -32.972656 16.941406 -33.046875 16.078125 -33.046875 C 13.359375 -33.046875 12 -31.773438 12 -29.234375 L 12 -27.046875 L 17.375 -27.046875 L 17.375 -21.75 L 12 -21.75 L 12 0 Z M 4.75 0 "/></g></g></g><g fill="#26a69a" fill-opacity="1"><g transform="translate(254.844198, 291.41667)"><g><path d="M 12.875 -10.21875 L 17.875 -27.046875 L 25.625 -27.046875 L 14.75 4.203125 L 14.15625 5.625 C 12.53125 9.15625 9.863281 10.921875 6.15625 10.921875 C 5.101562 10.921875 4.035156 10.765625 2.953125 10.453125 L 2.953125 4.96875 L 4.046875 5 C 5.410156 5 6.429688 4.789062 7.109375 4.375 C 7.785156 3.957031 8.316406 3.265625 8.703125 2.296875 L 9.546875 0.078125 L 0.078125 -27.046875 L 7.84375 -27.046875 Z M 12.875 -10.21875 "/></g></g></g></svg>